<?xml version="1.0" standalone="no"?>
<!DOCTYPE svg PUBLIC "-//W3C//DTD SVG 20010904//EN"
 "http://www.w3.org/TR/2001/REC-SVG-20010904/DTD/svg10.dtd">
<svg version="1.0" xmlns="http://www.w3.org/2000/svg"
 width="260.000000pt" height="260.000000pt" viewBox="0 0 260.000000 260.000000"
 preserveAspectRatio="xMidYMid meet">
<metadata>
Created by potrace 1.11, written by Peter Selinger 2001-2013
</metadata>
<g transform="translate(0.000000,260.000000) scale(0.100000,-0.100000)"
fill="#000000" stroke="none">
<path d="M1080 2131 c-14 -10 -81 -54 -149 -97 -103 -65 -358 -250 -397 -288
-6 -6 -34 -31 -63 -56 -231 -195 -432 -463 -459 -613 -19 -104 4 -186 67 -240
74 -62 336 -70 581 -18 413 88 795 247 1200 499 241 150 404 278 583 458 116
116 188 203 111 134 -21 -19 -41 -38 -44 -41 -3 -3 -52 -45 -110 -94 -103 -87
-277 -208 -407 -282 -36 -21 -77 -46 -91 -55 -40 -25 -45 -22 -72 33 l-25 50
-63 -4 c-58 -4 -64 -2 -82 21 -23 29 -24 45 -8 108 12 42 11 47 -7 60 -11 7
-24 17 -30 22 -5 4 -34 27 -64 50 -59 47 -62 47 -90 -25 -15 -37 -16 -37 -58
-22 -25 8 -37 24 -68 95 -21 46 -42 84 -46 84 -13 0 -16 1 -48 10 -16 4 -61
11 -100 15 l-71 7 39 -94 39 -93 -34 -13 c-33 -14 -34 -13 -144 62 -61 42
-115 77 -119 79 -8 2 -55 -36 -149 -120 -27 -25 -41 -45 -37 -54 5 -13 37 -34
208 -137 57 -35 57 -35 54 -79 -6 -61 2 -57 -125 -68 -42 -3 -108 -10 -147
-15 -38 -5 -74 -8 -80 -7 -13 3 -15 11 40 -210 l47 -191 151 40 c222 59 215
58 228 42 7 -8 9 -17 6 -20 -8 -8 -177 -50 -282 -70 -95 -17 -250 -23 -324
-11 -49 8 -113 36 -149 66 -53 45 -65 132 -32 230 59 176 228 375 544 639 45
38 238 177 274 198 17 10 32 22 32 26 0 10 -1 10 -30 -11z m378 -566 c29 -15
70 -46 91 -68 47 -47 101 -144 101 -182 0 -41 -22 -25 -34 26 -30 117 -151
222 -256 222 -165 0 -200 -202 -63 -354 26 -29 33 -43 25 -51 -24 -24 -98 56
-135 145 -49 117 -15 242 77 281 51 22 134 14 194 -19z m10 -107 c36 -22 76
-86 86 -136 5 -28 1 -38 -23 -62 -32 -32 -69 -45 -105 -36 -59 15 -125 104
-126 169 0 84 84 117 168 65z"/>
<path d="M1745 1184 c-45 -28 -316 -165 -414 -208 -35 -16 -109 -50 -165 -76
-56 -25 -109 -49 -118 -53 -9 -3 -15 -14 -14 -23 2 -10 -17 -53 -42 -97 -24
-43 -42 -80 -40 -81 1 -2 37 -18 78 -36 41 -18 116 -52 166 -75 135 -63 131
-63 143 -18 9 33 36 131 73 266 9 32 14 38 32 33 12 -3 33 -6 47 -6 24 0 30
-11 84 -142 32 -79 61 -147 66 -152 4 -4 53 27 109 70 117 90 114 71 39 234
-49 106 -50 110 -33 135 9 14 19 25 23 25 3 0 41 -20 85 -45 43 -25 82 -45 86
-45 4 0 7 50 7 110 l1 111 -47 31 c-25 18 -48 35 -51 38 -8 11 -48 30 -62 30
-7 0 -31 -12 -53 -26z"/>
</g>
</svg>
