<?xml version="1.0" encoding="utf-8"?>
<!-- Generator: Adobe Illustrator 18.0.0, SVG Export Plug-In . SVG Version: 6.00 Build 0)  -->
<!DOCTYPE svg PUBLIC "-//W3C//DTD SVG 1.1//EN" "http://www.w3.org/Graphics/SVG/1.1/DTD/svg11.dtd">
<svg version="1.1" id="Capa_1" xmlns="http://www.w3.org/2000/svg" xmlns:xlink="http://www.w3.org/1999/xlink" x="0px" y="0px"
	 viewBox="0 0 656.5 332.8" enable-background="new 0 0 656.5 332.8" xml:space="preserve">
<g>
	<linearGradient id="SVGID_1_" gradientUnits="userSpaceOnUse" x1="242.6678" y1="27.9924" x2="242.6678" y2="254.606">
		<stop  offset="0" style="stop-color:#4F4A45"/>
		<stop  offset="0.5231" style="stop-color:#514C46"/>
		<stop  offset="0.7393" style="stop-color:#57504B"/>
		<stop  offset="0.8984" style="stop-color:#615753"/>
		<stop  offset="1" style="stop-color:#6D5F5B"/>
	</linearGradient>
	<path fill="url(#SVGID_1_)" d="M88.7,122.9C127.4,85.7,171.4,54.4,218,28c-32.9,21.4-64.4,45.2-92.8,72.4
		c-17.9,17.4-35,36.2-47,58.2c-6.6,12.7-12.9,27.9-7.6,42.2c4.3,12.3,17.5,18.6,29.5,20.8c11.1,1.8,22.4,3.1,33.6,1.4
		c23.2-1.7,45.6-8,68.1-13.7c-0.7-2.1-0.6-5.3-3.3-5.9c-4.8-0.2-9.2,2-13.8,3c-15.6,3.9-31,8.5-46.7,12.1
		c-5.4-21.5-10.2-43.2-16.3-64.5c19.4-3,39.2-3.9,58.7-6.3c0.3-5.5,1.2-11,1.9-16.4c-9.2-4.6-17.6-10.7-26.3-16.1
		c-6-4-12.4-7.4-18.2-11.7c-0.1-0.6-0.4-1.9-0.6-2.6c10.5-8.2,19.8-18,30-26.6c2-0.2,3.5,1.5,5.2,2.4c11.3,8,22.7,15.9,34.2,23.6
		c3.6-1.5,7.3-2.9,10.9-4.1c-3.9-10.6-8.5-20.9-12.4-31.5c12.1,1.9,24.3,3,36.3,5.4c4.7,9.1,8.4,18.8,12.9,28.1
		c3.9,1.3,7.7,2.8,11.5,4.1c2.6-5.7,5.3-11.4,7.8-17.2c10.1,6.3,18.8,14.5,28.4,21.5c-1.7,6.3-3.9,12.4-5.2,18.7
		c2.1,3.5,4.9,6.6,7.3,9.9c6.8,0,13.6-1.2,20.4-1.6c2.9,6,6,11.9,9.2,17.8c20.5-12.2,41.5-23.7,60.9-37.5
		c21.5-14.3,40.1-33.2,60.2-49.5c-23.8,27.8-50.8,53.8-80.2,75.4c-39.1,28.1-81.1,52.2-124.7,72.6c-22.3,10.1-140.4,58.3-202.2,36.8
		c-6.4-2.8-14.4-10.8-16.6-22.2c-1.1-10.2-0.6-20.7,3.4-30.2C45.9,167.9,67.2,144.5,88.7,122.9z M229.9,127.2
		c-9.1,7.7-12,20.9-9.4,32.2c2.7,13.4,10.1,25.8,20.6,34.5c3.2,1.9,8.7-1.7,6.2-4.3c-11.7-9.3-20.2-23.9-19.3-39.2
		c-0.2-9.1,5.3-18.4,14.1-21.5c9.8-4,20.8-0.6,29.5,4.6c12.8,8.2,22.3,21.8,24,37.1c0.7,3.4,4.7,2.9,4.7-0.8
		c-1.1-10.2-6.2-19.4-12.4-27.3c-7.9-9.3-18-17.3-30-20.2C248.4,119.7,237.4,120.7,229.9,127.2z M253.4,139.9
		c-5,0.6-8.9,4.9-10.5,9.5c-2.9,11.5,3.6,23.5,12.8,30.1c4.6,3.1,9.2,5.8,16.1,3c4.8-1.6,11.9-6.1,12.2-9.9
		C285.9,156.4,270.6,137.7,253.4,139.9z"/>
</g>
<linearGradient id="SVGID_2_" gradientUnits="userSpaceOnUse" x1="184.7584" y1="244.3212" x2="349.5698" y2="244.3212">
	<stop  offset="0" style="stop-color:#CEAB81"/>
	<stop  offset="0.4271" style="stop-color:#CBA980"/>
	<stop  offset="0.6037" style="stop-color:#C2A27D"/>
	<stop  offset="0.7339" style="stop-color:#B29678"/>
	<stop  offset="0.8415" style="stop-color:#9D8570"/>
	<stop  offset="0.934" style="stop-color:#837165"/>
	<stop  offset="1" style="stop-color:#6D5F5B"/>
</linearGradient>
<path fill="url(#SVGID_2_)" d="M304.6,195.3c6.7-3.6,12.9-8.1,19.8-11.4c8.7,5.1,16.5,11.6,25.1,17v37.5
	c-9.5-5.8-20.4-11.6-29.8-17.5c-1.3,3.6-3.6,7.2-6,9.4c3.5,7.8,16.8,36.4,19,43.4c-11.7,8.4-22.7,17.8-34.5,26.1
	c-7.2-16.7-13.3-33.4-20.9-50.2c-5,0.7-10.9-0.2-15.2-1.6l-15.5,56.6L184.8,277c4.9-8.9,14.9-26.8,14.9-26.8l-1.4-4.4
	C201.8,243.4,274.6,212.2,304.6,195.3z"/>
<g>
	<linearGradient id="SVGID_3_" gradientUnits="userSpaceOnUse" x1="386.4211" y1="110.486" x2="386.4211" y2="239.1053">
		<stop  offset="0" style="stop-color:#4F4A45"/>
		<stop  offset="0.5231" style="stop-color:#514C46"/>
		<stop  offset="0.7393" style="stop-color:#57504B"/>
		<stop  offset="0.8984" style="stop-color:#615753"/>
		<stop  offset="1" style="stop-color:#6D5F5B"/>
	</linearGradient>
	<path fill="url(#SVGID_3_)" d="M372.2,233.3V116.2c0-4,0-5.7,0-5.7l28.4,0c0,0,0,1.7,0,5.8v117.1c0,4,0,5.7,0,5.7l-28.4,0.1
		C372.2,239.1,372.2,237.4,372.2,233.3z"/>
	<linearGradient id="SVGID_4_" gradientUnits="userSpaceOnUse" x1="477.72" y1="110.4861" x2="477.72" y2="239.1053">
		<stop  offset="0" style="stop-color:#4F4A45"/>
		<stop  offset="0.5231" style="stop-color:#514C46"/>
		<stop  offset="0.7393" style="stop-color:#57504B"/>
		<stop  offset="0.8984" style="stop-color:#615753"/>
		<stop  offset="1" style="stop-color:#6D5F5B"/>
	</linearGradient>
	<path fill="url(#SVGID_4_)" d="M413.2,233.3V116.2c0-3.9,0-5.8,0-5.8h29.4l2.8,4.8l32.2,57.3l32.6-57.3l2.6-4.8l29.4-0.1
		c0,0,0,1.9,0,5.8v117.1v5.7H515l0-5.7v-75.7l-0.1-1.3l-27.2,48.5l-1.8,3.4h-16.2l-1.9-3.4l-27.3-48.4l0,1.2v75.7c0,3.9,0,5.7,0,5.7
		l-27.3,0C413.2,239.1,413.2,237.2,413.2,233.3z"/>
	<linearGradient id="SVGID_5_" gradientUnits="userSpaceOnUse" x1="588.9636" y1="109.2923" x2="588.9636" y2="240.2947">
		<stop  offset="0" style="stop-color:#4F4A45"/>
		<stop  offset="0.5231" style="stop-color:#514C46"/>
		<stop  offset="0.7393" style="stop-color:#57504B"/>
		<stop  offset="0.8984" style="stop-color:#615753"/>
		<stop  offset="1" style="stop-color:#6D5F5B"/>
	</linearGradient>
	<path fill="url(#SVGID_5_)" d="M546.4,225.4l6.8-10l5.3-7.5c0.7,0.3,2.9,1.1,4.8,2c7.8,3.8,14.9,6.4,22.1,6.4
		c11.5,0,17.2-4.5,17.2-13.4c0-3.9-1.8-7.2-5.5-9.9c-3.7-2.7-8.1-5-13.3-7c-5.2-2-10.3-4.3-15.5-7c-5.1-2.6-9.5-6.7-13.2-12.2
		c-3.7-5.5-5.5-12.4-5.5-20.6c0-8.2,2.2-15.3,6.6-21.1c7.9-10.6,20.2-15.9,36.8-15.9c9.3,0,17.1,1.3,23.4,4c6.3,2.7,9.9,7.1,9.9,7.1
		l-3.8,11.7l-2.7,7.4c0,0-5.6-2.3-7.1-2.7c0,0-0.1,0-0.1,0c-5.3-1.9-10.5-3.3-16.9-3.3c-6.4,0-10.9,1.1-13.4,3.3
		c-2.5,2.2-3.8,4.9-3.8,8.2c0,3.3,1.8,6.2,5.5,8.8c3.7,2.6,8.1,4.8,13.2,6.8c5.1,2,10.3,4.2,15.5,6.9c5.2,2.6,9.6,6.7,13.3,12.2
		c3.7,5.5,5.5,12,5.5,19.7c0,7.6-1.2,14.2-3.6,19.6c-2.4,5.4-5.6,9.7-9.8,12.7c-8.1,5.9-17.9,8.8-29.6,8.8
		c-11.7,0-21.5-1.8-29.5-5.3C551.1,231.5,546.4,225.4,546.4,225.4z"/>
</g>
</svg>
